<svg width="20" height="20" viewBox="0 0 20 20" fill="none" xmlns="http://www.w3.org/2000/svg">
<path d="M17.7213 0L20 2.27874L18.2628 4.01666L15.9841 1.73792L17.7213 0ZM9.375 10.625H11.6537L17.1888 5.08994L14.9101 2.8112L9.375 8.34626V10.625Z" fill="#F8F8F8"/>
<path d="M16.6667 17.9167H5.37292C5.34583 17.9167 5.31771 17.9271 5.29063 17.9271C5.25625 17.9271 5.22187 17.9177 5.18646 17.9167H2.08333V3.33333H9.21562L11.299 1.25H2.08333C0.934375 1.25 0 2.18333 0 3.33333V17.9167C0 19.0667 0.934375 20 2.08333 20H16.6667C17.2192 20 17.7491 19.7805 18.1398 19.3898C18.5305 18.9991 18.75 18.4692 18.75 17.9167V8.8875L16.6667 10.9708V17.9167Z" fill="#F8F8F8"/>
</svg>
