<svg width="20" height="20" viewBox="0 0 20 20" fill="none" xmlns="http://www.w3.org/2000/svg">
<path d="M19.4739 3.2395L10.2432 0.0410395C10.0853 -0.0136798 9.91455 -0.0136798 9.75665 0.0410395L0.525957 3.2395C0.37279 3.29257 0.239572 3.3944 0.145175 3.53056C0.0507781 3.66672 -1.19636e-05 3.8303 2.11379e-09 3.99813V11.9943C2.11379e-09 12.2063 0.081043 12.4097 0.225301 12.5597C0.369558 12.7096 0.565213 12.7939 0.769224 12.7939C0.973235 12.7939 1.16889 12.7096 1.31315 12.5597C1.45741 12.4097 1.53845 12.2063 1.53845 11.9943V5.1076L4.76823 6.22606C3.91012 7.66716 3.63724 9.40336 4.00952 11.0534C4.38179 12.7035 5.36879 14.1326 6.75379 15.0268C5.02303 15.7325 3.52689 17.0089 2.43267 18.754C2.37576 18.8419 2.33624 18.9407 2.31639 19.0447C2.29653 19.1486 2.29676 19.2556 2.31704 19.3595C2.33732 19.4633 2.37726 19.562 2.43453 19.6496C2.4918 19.7373 2.56527 19.8122 2.65065 19.8701C2.73604 19.928 2.83164 19.9677 2.93191 19.9868C3.03217 20.006 3.1351 20.0042 3.2347 19.9817C3.3343 19.9591 3.4286 19.9162 3.5121 19.8554C3.59561 19.7946 3.66666 19.7172 3.72112 19.6276C5.17015 17.3167 7.45859 15.9923 9.99991 15.9923C12.5412 15.9923 14.8297 17.3167 16.2787 19.6276C16.3915 19.8019 16.5658 19.923 16.7639 19.9648C16.9619 20.0066 17.1679 19.9657 17.3372 19.851C17.5064 19.7362 17.6255 19.5568 17.6685 19.3515C17.7115 19.1462 17.6751 18.9316 17.5672 18.754C16.4729 17.0089 14.971 15.7325 13.246 15.0268C14.6297 14.1326 15.6158 12.7045 15.988 11.0556C16.3602 9.40675 16.0882 7.67174 15.2316 6.23105L19.4739 4.76176C19.6271 4.70872 19.7603 4.6069 19.8548 4.47074C19.9492 4.33458 20 4.17098 20 4.00313C20 3.83527 19.9492 3.67168 19.8548 3.53552C19.7603 3.39936 19.6271 3.29754 19.4739 3.24449V3.2395ZM14.6153 9.59543C14.6155 10.3539 14.4427 11.1017 14.111 11.7773C13.7794 12.4529 13.2984 13.0372 12.7075 13.4821C12.1166 13.9271 11.4326 14.2201 10.7117 14.3371C9.99076 14.4541 9.25342 14.3917 8.56017 14.1551C7.86691 13.9185 7.23751 13.5144 6.72359 12.9759C6.20967 12.4375 5.82588 11.7801 5.60371 11.0576C5.38154 10.3351 5.32733 9.56818 5.44551 8.8197C5.5637 8.07123 5.85092 7.36255 6.2836 6.7518L9.75665 7.95122C9.91455 8.00594 10.0853 8.00594 10.2432 7.95122L13.7162 6.7518C14.3006 7.57543 14.6157 8.57203 14.6153 9.59543Z" fill="#F8F8F8"/>
</svg>
