<svg width="17" height="19" viewBox="0 0 17 19" fill="none" xmlns="http://www.w3.org/2000/svg">
<path d="M8.5 14.9282C7.90618 14.9283 7.33093 14.763 6.87347 14.4607C6.41602 14.1584 6.10505 13.7381 5.9942 13.2723C4.32672 12.8609 2.85829 12.0496 1.7884 10.9487C0.980704 10.1183 0.425721 9.1494 0.167225 8.11846C-0.0912712 7.08753 -0.0462083 6.02274 0.298859 5.00809C0.643925 3.99344 1.27956 3.05668 2.15562 2.2717C3.03168 1.48671 4.12421 0.87498 5.34702 0.48475C6.56983 0.0945196 7.88949 -0.0635343 9.2019 0.0230554C10.5143 0.109645 11.7836 0.43851 12.9096 0.98371C14.0355 1.52891 14.9875 2.27553 15.6903 3.16468C16.393 4.05383 16.8274 5.06119 16.9592 6.10731C17.0051 6.48056 16.6192 6.78458 16.15 6.78458C15.6808 6.78458 15.3051 6.4792 15.249 6.10731C15.0973 5.14749 14.6271 4.23747 13.887 3.47142C13.147 2.70537 12.164 2.1111 11.0398 1.75012C9.91563 1.38914 8.69102 1.27455 7.49273 1.41821C6.29445 1.56187 5.166 1.95856 4.22417 2.56724C3.28234 3.17592 2.56132 3.97447 2.13574 4.88027C1.71015 5.78606 1.59545 6.7662 1.8035 7.71927C2.01156 8.67233 2.53481 9.5637 3.31911 10.3011C4.10342 11.0386 5.12028 11.5953 6.2645 11.9137C6.48082 11.5986 6.79773 11.3349 7.18304 11.1492C7.56836 10.9636 8.00835 10.8626 8.45833 10.8567C8.90831 10.8507 9.35225 10.9399 9.74506 11.1153C10.1379 11.2906 10.4656 11.5459 10.6948 11.8551C10.9241 12.1642 11.0468 12.5164 11.0505 12.8757C11.0542 13.235 10.9387 13.5886 10.7158 13.9008C10.4929 14.2129 10.1704 14.4724 9.78127 14.6528C9.3921 14.8333 8.95004 14.9283 8.5 14.9282ZM1.7 12.8923V12.8556C1.23517 12.5233 0.809514 12.1575 0.4284 11.763C0.149116 12.0974 5.48587e-05 12.4904 0 12.8923V13.5709C0 16.2461 3.162 19 8.5 19C13.838 19 17 16.2461 17 13.5709V12.8923C17 12.3523 16.7313 11.8345 16.2531 11.4527C15.7749 11.0709 15.1263 10.8564 14.45 10.8564H11.9C12.2723 11.25 12.5375 11.7115 12.665 12.2137H14.45C14.6754 12.2137 14.8916 12.2852 15.051 12.4124C15.2104 12.5397 15.3 12.7123 15.3 12.8923V13.5709C15.3 15.5227 12.8656 17.6427 8.5 17.6427C4.1344 17.6427 1.7 15.5227 1.7 13.5709V12.8923ZM8.5 9.49912C7.52728 9.49909 6.58399 9.76546 5.8276 10.2538C5.08435 9.89021 4.47068 9.38017 4.04556 8.77264C3.62043 8.16511 3.39812 7.4805 3.4 6.78458C3.40025 6.0747 3.63295 5.37721 4.07502 4.76128C4.51708 4.14536 5.15315 3.63241 5.92014 3.27332C6.68712 2.91422 7.55837 2.72145 8.44746 2.71414C9.33655 2.70683 10.2126 2.88522 10.9887 3.23162C11.7648 3.57803 12.4139 4.08041 12.8718 4.68893C13.3297 5.29745 13.5803 5.99097 13.5989 6.70069C13.6175 7.41042 13.4033 8.11169 12.9777 8.73494C12.552 9.3582 11.9297 9.88178 11.1724 10.2538C10.416 9.76546 9.47272 9.49909 8.5 9.49912ZM5.1 6.78458C5.1 7.50452 5.45821 8.19498 6.09584 8.70405C6.73346 9.21313 7.59826 9.49912 8.5 9.49912C9.40174 9.49912 10.2665 9.21313 10.9042 8.70405C11.5418 8.19498 11.9 7.50452 11.9 6.78458C11.9 6.06464 11.5418 5.37419 10.9042 4.86512C10.2665 4.35604 9.40174 4.07005 8.5 4.07005C7.59826 4.07005 6.73346 4.35604 6.09584 4.86512C5.45821 5.37419 5.1 6.06464 5.1 6.78458Z" fill="#F8F8F8"/>
</svg>
