<svg width="20" height="20" viewBox="0 0 20 20" fill="none" xmlns="http://www.w3.org/2000/svg">
<path d="M18.75 1.87269L13.7456 1.87271V0.627083C13.7456 0.28177 13.4659 0.00208282 13.1206 0.00208282C12.7753 0.00208282 12.4956 0.28177 12.4956 0.627083V1.8724H7.49563V0.627083C7.49563 0.28177 7.21594 0.00208282 6.87063 0.00208282C6.52531 0.00208282 6.24563 0.28177 6.24563 0.627083V1.8724H1.25C0.559687 1.8724 0 2.43208 0 3.1224V18.7474C0 19.4377 0.559687 19.9974 1.25 19.9974H18.75C19.4403 19.9974 20 19.4377 20 18.7474V3.1224C20 2.43238 19.4403 1.87269 18.75 1.87269ZM18.75 18.7474H1.25V3.1224H6.24563V3.75208C6.24563 4.09738 6.52531 4.37708 6.87063 4.37708C7.21594 4.37708 7.49563 4.09738 7.49563 3.75208V3.12271H12.4956V3.75239C12.4956 4.09771 12.7753 4.37739 13.1206 4.37739C13.4659 4.37739 13.7456 4.09771 13.7456 3.75239V3.12271H18.75V18.7474ZM14.375 9.99769H15.625C15.97 9.99769 16.25 9.71769 16.25 9.37269V8.12269C16.25 7.77769 15.97 7.49769 15.625 7.49769H14.375C14.03 7.49769 13.75 7.77769 13.75 8.12269V9.37269C13.75 9.71769 14.03 9.99769 14.375 9.99769ZM14.375 14.9974H15.625C15.97 14.9974 16.25 14.7177 16.25 14.3724V13.1224C16.25 12.7774 15.97 12.4974 15.625 12.4974H14.375C14.03 12.4974 13.75 12.7774 13.75 13.1224V14.3724C13.75 14.718 14.03 14.9974 14.375 14.9974ZM10.625 12.4974H9.375C9.03 12.4974 8.75 12.7774 8.75 13.1224V14.3724C8.75 14.7177 9.03 14.9974 9.375 14.9974H10.625C10.97 14.9974 11.25 14.7177 11.25 14.3724V13.1224C11.25 12.7777 10.97 12.4974 10.625 12.4974ZM10.625 7.49769H9.375C9.03 7.49769 8.75 7.77769 8.75 8.12269V9.37269C8.75 9.71769 9.03 9.99769 9.375 9.99769H10.625C10.97 9.99769 11.25 9.71769 11.25 9.37269V8.12269C11.25 7.77737 10.97 7.49769 10.625 7.49769ZM5.625 7.49769H4.375C4.03 7.49769 3.75 7.77769 3.75 8.12269V9.37269C3.75 9.71769 4.03 9.99769 4.375 9.99769H5.625C5.97 9.99769 6.25 9.71769 6.25 9.37269V8.12269C6.25 7.77737 5.97 7.49769 5.625 7.49769ZM5.625 12.4974H4.375C4.03 12.4974 3.75 12.7774 3.75 13.1224V14.3724C3.75 14.7177 4.03 14.9974 4.375 14.9974H5.625C5.97 14.9974 6.25 14.7177 6.25 14.3724V13.1224C6.25 12.7777 5.97 12.4974 5.625 12.4974Z" fill="#F8F8F8"/>
</svg>
